<svg width="40" height="40" viewBox="0 0 40 40" fill="none" xmlns="http://www.w3.org/2000/svg">
<path d="M25.1665 34.5C23.4998 35 21.8332 35.3333 19.9998 35.3333C11.4998 35.3333 4.6665 28.5 4.6665 19.8333C4.6665 11.3333 11.4998 4.5 20.1665 4.5C28.6665 4.5 35.4998 11.3333 35.4998 20C35.4998 21 35.4998 21.6667 35.4998 21.6667C35.4998 24.5 33.1665 26.8333 30.3332 26.8333C27.4998 26.8333 25.1665 24.5 25.1665 21.6667V14.8333" stroke="#323232" stroke-width="2" stroke-linecap="round" stroke-linejoin="round"/>
<path d="M19.9997 25.1667C16.9997 25.1667 14.833 22.8333 14.833 20.1667V20C14.833 17.1667 17.1663 15 19.833 15H19.9997C22.833 15 24.9997 17.3333 24.9997 20C25.1663 22.8333 22.833 25.1667 19.9997 25.1667Z" stroke="#323232" stroke-width="2" stroke-linecap="round" stroke-linejoin="round"/>
</svg>
